HIERARCHY
ROOT Hips
{
 OFFSET 0.000000 0.000000 0.000000
 CHANNELS 6 Xposition Yposition Zposition Yrotation Xrotation Zrotation
 JOINT Chest
 {
  OFFSET 0.000000 9.585900 0.002600
  CHANNELS 3 Yrotation Xrotation Zrotation
  JOINT Chest2
  {
   OFFSET 0.000000 9.601200 -0.005300
   CHANNELS 3 Yrotation Xrotation Zrotation
   JOINT Chest3
   {
    OFFSET 0.000000 9.561800 0.000000
    CHANNELS 3 Yrotation Xrotation Zrotation
    JOINT Chest4
    {
     OFFSET 0.000000 9.552100 0.000000
     CHANNELS 3 Yrotation Xrotation Zrotation
     JOINT Neck
     {
      OFFSET 0.000000 14.453000 0.000000
      CHANNELS 3 Yrotation Xrotation Zrotation
      JOINT Head
      {
       OFFSET 0.000000 8.936500 -0.011300
       CHANNELS 3 Yrotation Xrotation Zrotation
       End Site
       {
        OFFSET 0.000000 17.073600 -0.006000
       }
      }
     }
     JOINT RightCollar
     {
      OFFSET -2.921100 9.558500 0.000000
      CHANNELS 3 Yrotation Xrotation Zrotation
      JOINT RightShoulder
      {
       OFFSET -13.519700 0.000000 0.000000
       CHANNELS 3 Yrotation Xrotation Zrotation
       JOINT RightElbow
       {
        OFFSET 0.000000 -29.696600 0.000000
        CHANNELS 3 Yrotation Xrotation Zrotation
        JOINT RightWrist
        {
         OFFSET 0.000000 -24.004700 0.000000
         CHANNELS 3 Yrotation Xrotation Zrotation
         End Site
         {
          OFFSET 0.000000 -17.728500 0.000000
         }
        }
       }
      }
     }
     JOINT LeftCollar
     {
      OFFSET 2.921100 9.558500 0.000000
      CHANNELS 3 Yrotation Xrotation Zrotation
      JOINT LeftShoulder
      {
       OFFSET 13.519700 0.000000 0.000000
       CHANNELS 3 Yrotation Xrotation Zrotation
       JOINT LeftElbow
       {
        OFFSET 0.000000 -29.696600 0.000000
        CHANNELS 3 Yrotation Xrotation Zrotation
        JOINT LeftWrist
        {
         OFFSET 0.000000 -24.004700 0.000000
         CHANNELS 3 Yrotation Xrotation Zrotation
         End Site
         {
          OFFSET 0.000000 -17.728500 0.000000
         }
        }
       }
      }
     }
    }
   }
  }
 }
 JOINT RightHip
 {
  OFFSET -7.771700 -0.012900 -0.001300
  CHANNELS 3 Yrotation Xrotation Zrotation
  JOINT RightKnee
  {
   OFFSET 0.000000 -40.869800 0.001200
   CHANNELS 3 Yrotation Xrotation Zrotation
   JOINT RightAnkle
   {
    OFFSET 0.000000 -39.717900 0.002100
    CHANNELS 3 Yrotation Xrotation Zrotation
    JOINT RightToe
    {
     OFFSET 0.000000 -4.965400 11.033500
     CHANNELS 3 Yrotation Xrotation Zrotation
     End Site
     {
      OFFSET 0.000000 -1.423100 5.872300
     }
    }
   }
  }
 }
 JOINT LeftHip
 {
  OFFSET 7.771700 -0.012900 -0.001300
  CHANNELS 3 Yrotation Xrotation Zrotation
  JOINT LeftKnee
  {
   OFFSET 0.000000 -40.869800 0.001200
   CHANNELS 3 Yrotation Xrotation Zrotation
   JOINT LeftAnkle
   {
    OFFSET 0.000000 -39.717900 0.002100
    CHANNELS 3 Yrotation Xrotation Zrotation
    JOINT LeftToe
    {
     OFFSET 0.000000 -4.965400 11.033500
     CHANNELS 3 Yrotation Xrotation Zrotation
     End Site
     {
      OFFSET 0.000000 -1.423100 5.872300
     }
    }
   }
  }
 }
}
MOTION
Frames: 13
Frame Time: 0.008333
0.000000 85.388000 0.000000 0.000000 -5.767877 0.000000 0.000000 11.653817 0.000000 0.000000 -5.885947 0.000000 0.000000 -0.000000 0.000000 0.000000 -0.000000 0.000000 0.000000 12.528835 0.000000 0.000000 0.711642 0.000000 0.000000 -0.000000 0.000000 0.000000 0.000000 -90.000000 0.000000 -2.309062 0.000000 0.000000 2.309062 0.000000 0.000000 -0.000000 0.000000 0.000000 -0.000000 90.000000 0.000000 -2.309062 0.000000 0.000000 2.309062 0.000000 0.000000 8.520406 0.000000 0.000000 1.905762 0.000000 -0.000000 -4.658285 0.000000 0.000000 -0.000000 0.000000 0.000000 8.520406 0.000000 0.000000 1.905762 0.000000 -0.000000 -4.658285 0.000000 0.000000 -0.000000 0.000000
2.344103 50.229615 41.770979 172.021698 -32.095856 -6.278396 11.364986 24.549261 10.162808 1.698026 4.538143 1.192684 2.727623 7.141466 1.947015 8.808218 20.287219 6.761926 -4.461266 17.265918 2.516607 -9.089714 -3.385104 6.141060 1.945247 1.576573 -10.071001 18.203828 -29.964673 -25.606750 106.361983 -18.795626 -133.949424 2.590703 -22.847810 -45.580132 -29.459996 4.236979 8.551856 -8.693875 -41.156114 3.788954 -113.107640 -14.311652 147.709854 21.017068 -43.401164 32.212442 3.131360 -49.197772 10.643272 -92.701261 81.766724 -80.653830 -1.312522 -9.932229 -3.682232 -0.390006 1.282737 -0.186987 -9.643520 -52.956696 17.472730 -142.510863 82.862787 -150.063784 0.896179 -13.253896 7.921441 -0.413731 -0.983009 -0.174968
2.341781 50.228463 41.772305 172.023734 -32.048642 -6.267369 11.373982 24.499479 10.165480 1.732617 4.511661 1.212072 2.695398 7.148438 1.936811 8.885165 20.206812 6.802534 -4.492173 17.273462 2.512670 -9.144740 -3.368692 6.143302 1.799598 1.465285 -10.174302 17.850296 -29.164244 -25.403341 106.747300 -18.922349 -134.486577 2.543280 -22.780847 -45.518920 -29.327087 3.962125 8.791568 -8.918305 -40.424228 3.601441 -113.121302 -14.852299 147.652114 21.334900 -43.467985 31.494938 3.130316 -49.245458 10.634260 -92.715610 81.768871 -80.676737 -1.332083 -9.939692 -3.682417 -0.380884 1.288819 -0.181073 -9.643683 -52.995197 17.461003 -142.438792 82.873402 -149.995772 0.900962 -13.277103 7.919330 -0.418221 -0.955242 -0.172093
2.341966 50.228011 41.772675 172.024259 -32.006601 -6.270827 11.454161 24.421508 10.233164 1.726732 4.496093 1.209585 2.642462 7.156280 1.929169 9.001806 20.114576 6.843013 -4.532926 17.276957 2.509637 -9.210253 -3.373906 6.153564 1.593080 1.332827 -10.253826 17.537251 -28.352386 -25.198322 107.182297 -19.088976 -134.983567 2.492202 -22.731180 -45.391178 -29.215865 3.712594 9.035081 -9.112000 -39.731723 3.372063 -113.071995 -15.329592 147.570073 21.607160 -43.564440 30.765264 3.098619 -49.285864 10.664463 -92.707988 81.762313 -80.689648 -1.343013 -9.943320 -3.683166 -0.368751 1.292304 -0.173254 -9.666721 -53.033141 17.477300 -142.378747 82.873931 -149.937782 0.911597 -13.283977 7.916810 -0.415971 -0.945974 -0.174715
2.340317 50.226501 41.773349 172.033490 -31.955111 -6.269812 11.561398 24.330348 10.304341 1.722441 4.482252 1.209410 2.731932 7.072903 1.965984 9.004493 20.103715 6.880638 -4.586069 17.271979 2.507618 -9.307941 -3.378391 6.167881 1.292800 1.169784 -10.308789 17.245136 -27.565174 -24.971546 107.672502 -19.272705 -135.440562 2.451191 -22.714901 -45.190346 -29.168862 3.442518 9.288061 -9.254735 -39.034730 3.091548 -112.965754 -15.723911 147.487415 21.832488 -43.679071 30.042765 3.070919 -49.330691 10.677786 -92.683593 81.751625 -80.683641 -1.354263 -9.959495 -3.684927 -0.357689 1.306861 -0.164924 -9.738030 -53.069022 17.501718 -142.174703 82.876747 -149.755889 0.960077 -13.296414 7.901803 -0.421517 -0.925761 -0.181656
2.340894 50.226765 41.771107 172.035487 -31.924661 -6.277733 11.702265 24.262620 10.395450 1.741181 4.464356 1.218449 2.797738 7.028628 1.989541 9.066762 20.049837 6.935839 -4.648815 17.260619 2.506507 -9.424133 -3.393556 6.187641 0.902290 0.988106 -10.347990 16.967053 -26.836698 -24.720822 108.190133 -19.444884 -135.847712 2.440536 -22.727613 -44.943867 -29.201773 3.129902 9.534556 -9.350494 -38.312473 2.776565 -112.812242 -16.027213 147.420248 22.015457 -43.797935 29.360835 3.013825 -49.350900 10.727889 -92.636784 81.741798 -80.668234 -1.360313 -9.970699 -3.687920 -0.350868 1.315225 -0.159528 -9.794171 -53.089525 17.534753 -142.127545 82.878098 -149.721395 0.983879 -13.297111 7.892288 -0.425452 -0.924870 -0.185854
2.339992 50.224435 41.772045 172.041113 -31.867351 -6.283675 11.844791 24.169564 10.484252 1.761385 4.447758 1.228772 2.830100 7.002558 2.006570 9.171102 19.980078 6.997826 -4.712328 17.246998 2.501580 -9.540680 -3.413201 6.200802 0.484969 0.795765 -10.384978 16.700429 -26.157746 -24.456731 108.675510 -19.577501 -136.197090 2.463967 -22.764769 -44.696570 -29.277853 2.781231 9.750073 -9.409268 -37.576967 2.447291 -112.635664 -16.252965 147.369684 22.156652 -43.909339 28.754093 2.984394 -49.406296 10.743866 -92.646769 81.736017 -80.688727 -1.361435 -9.978457 -3.692532 -0.348483 1.320203 -0.155887 -9.841526 -53.143598 17.560001 -142.116695 82.880674 -149.714593 0.992276 -13.298119 7.884212 -0.422188 -0.919771 -0.186156
2.337826 50.222708 41.771091 172.058145 -31.818624 -6.289164 11.897105 24.106081 10.519365 1.837732 4.424983 1.256446 2.856437 6.977854 2.022733 9.258171 19.916243 7.056097 -4.767998 17.231089 2.484935 -9.639141 -3.439072 6.189981 0.116730 0.594433 -10.425878 16.445578 -25.491315 -24.195929 109.077870 -19.653701 -136.498622 2.517925 -22.818881 -44.483718 -29.332779 2.414415 9.913622 -9.447463 -36.858615 2.119432 -112.466759 -16.425315 147.324904 22.265363 -44.008910 28.234709 2.959676 -49.451361 10.745477 -92.689247 81.733802 -80.737778 -1.367314 -9.992613 -3.696450 -0.346281 1.325852 -0.152162 -9.885739 -53.188470 17.570819 -142.163353 82.887573 -149.763748 0.983545 -13.299331 7.877243 -0.416991 -0.913328 -0.186185
2.337836 50.218846 41.774048 172.062368 -31.745757 -6.307181 11.959609 24.014583 10.567848 1.877513 4.398365 1.279547 2.871498 6.953795 2.035617 9.314146 19.862035 7.103855 -4.810477 17.211379 2.455645 -9.709315 -3.474579 6.151947 -0.164026 0.386921 -10.470502 16.207575 -24.809832 -23.942499 109.382793 -19.672865 -136.770588 2.607325 -22.881785 -44.323140 -29.320609 2.046667 10.015890 -9.479880 -36.191284 1.804187 -112.339919 -16.574697 147.269899 22.353076 -44.090833 27.795489 2.928381 -49.523020 10.768919 -92.740841 81.731471 -80.792302 -1.336759 -10.048614 -3.693493 -0.372427 1.375299 -0.160522 -9.957853 -53.250837 17.608320 -142.336564 82.911374 -149.936803 1.026696 -13.312277 7.873615 -0.464634 -0.900571 -0.209554
2.334570 50.218127 41.769843 172.080892 -31.716298 -6.310856 12.034994 23.956309 10.631770 1.848568 4.374519 1.272687 2.868303 6.948337 2.041280 9.344878 19.795494 7.136856 -4.836389 17.189117 2.423283 -9.748015 -3.516706 6.103061 -0.351262 0.169038 -10.511356 15.990352 -24.094227 -23.689232 109.592477 -19.649583 -137.022278 2.721696 -22.957127 -44.208640 -29.234179 1.697327 10.057426 -9.514342 -35.600766 1.519871 -112.287211 -16.739347 147.193627 22.437058 -44.149986 27.418641 2.917104 -49.549240 10.758078 -92.804455 81.730957 -80.855214 -1.342559 -10.059848 -3.698555 -0.368478 1.375386 -0.156463 -9.963750 -53.275488 17.571960 -142.567443 82.933139 -150.145996 1.019701 -13.335091 7.857777 -0.467225 -0.879911 -0.210786
2.331706 50.217523 41.764508 172.108593 -31.694656 -6.324886 12.103023 23.862431 10.698059 1.771263 4.410777 1.252714 2.875329 6.887677 2.043289 9.345094 19.751369 7.158166 -4.843751 17.168597 2.399223 -9.755235 -3.556514 6.063067 -0.456105 -0.064767 -10.531465 15.798570 -23.333822 -23.434769 109.717561 -19.609968 -137.250088 2.842649 -23.045348 -44.121828 -29.086641 1.385311 10.041964 -9.565987 -35.094716 1.288464 -112.318646 -16.942722 147.095216 22.538153 -44.187009 27.092002 2.897421 -49.566589 10.754395 -92.860151 81.734916 -80.912405 -1.343723 -10.070163 -3.696113 -0.364039 1.374165 -0.156196 -9.969266 -53.294103 17.534049 -142.803070 82.951710 -150.354207 1.015856 -13.358292 7.844003 -0.469270 -0.860706 -0.211965
2.326743 50.216322 41.757919 172.165299 -31.677188 -6.344964 12.070604 23.798234 10.688650 1.770841 4.373895 1.255166 2.861080 6.844930 2.042913 9.325975 19.724028 7.170464 -4.835985 17.153527 2.391051 -9.739489 -3.586008 6.046750 -0.506349 -0.309452 -10.515186 15.638183 -22.537186 -23.183065 109.783635 -19.585952 -137.447716 2.956918 -23.135434 -44.046692 -28.898696 1.126710 9.981673 -9.649390 -34.666999 1.115855 -112.416927 -17.181735 146.980389 22.659978 -44.200295 26.817027 2.877299 -49.576344 10.723854 -92.960644 81.742734 -81.003687 -1.349580 -10.088309 -3.695079 -0.365996 1.373156 -0.157569 -9.980818 -53.309726 17.476341 -142.982350 82.968085 -150.508581 1.019231 -13.378450 7.838362 -0.476159 -0.841610 -0.216210
2.324908 50.214704 41.751359 172.196028 -31.668177 -6.374332 12.063823 23.718446 10.686182 1.765535 4.326527 1.249833 2.839933 6.820284 2.041000 9.307140 19.669528 7.172573 -4.817235 17.143717 2.400957 -9.709021 -3.604875 6.059628 -0.531812 -0.558845 -10.457531 15.520061 -21.719959 -22.936095 109.822925 -19.607525 -137.612725 3.044658 -23.215553 -43.972153 -28.681051 0.936124 9.893183 -9.773734 -34.312895 0.992021 -112.547631 -17.435413 146.855926 22.794126 -44.183665 26.590803 2.840404 -49.581515 10.738937 -93.015824 81.743382 -81.056902 -1.347641 -10.091112 -3.690871 -0.370774 1.366478 -0.160662 -10.006450 -53.315495 17.462806 -143.221676 82.979136 -150.721082 1.007214 -13.404560 7.831003 -0.471743 -0.822314 -0.221881
